<mxfile host="app.diagrams.net" modified="2024-06-30T11:31:13.801Z" agent="Mozilla/5.0 (Windows NT 10.0; Win64; x64) AppleWebKit/537.36 (KHTML, like Gecko) Chrome/123.0.0.0 Safari/537.36 OPR/109.0.0.0" etag="on63komQYGol7g0S2auO" version="24.6.3" type="device">
  <diagram name="Seite-1" id="cd1SYrcaDmPCXQ9frE4y">
    <mxGraphModel dx="1393" dy="758" grid="1" gridSize="10" guides="1" tooltips="1" connect="1" arrows="1" fold="1" page="1" pageScale="1" pageWidth="827" pageHeight="1169" math="0" shadow="0">
      <root>
        <mxCell id="0" />
        <mxCell id="1" parent="0" />
        <mxCell id="rQm5PKmlF0nse6cL3SRx-5" value="&lt;div style=&quot;&quot;&gt;&lt;span style=&quot;font-size: 14px;&quot;&gt;CityEndpoint:&lt;/span&gt;&lt;br&gt;&lt;font style=&quot;font-size: 12px;&quot;&gt;Holt Längen und Breitengrad der eingegebenen Stadt&lt;/font&gt;&lt;/div&gt;" style="html=1;whiteSpace=wrap;" vertex="1" parent="1">
          <mxGeometry x="44" y="110" width="160" height="110" as="geometry" />
        </mxCell>
        <mxCell id="rQm5PKmlF0nse6cL3SRx-6" value="&lt;div style=&quot;&quot;&gt;&lt;font style=&quot;font-size: 14px;&quot;&gt;WeatherEndpoint:&lt;/font&gt;&lt;/div&gt;&lt;div style=&quot;&quot;&gt;&lt;font style=&quot;font-size: 12px;&quot;&gt;Holt Anhand von Längen und Breitengrad informationen zum Wetter&lt;/font&gt;&lt;/div&gt;" style="html=1;whiteSpace=wrap;" vertex="1" parent="1">
          <mxGeometry x="44" y="330" width="160" height="110" as="geometry" />
        </mxCell>
        <mxCell id="rQm5PKmlF0nse6cL3SRx-7" value="&lt;div style=&quot;&quot;&gt;&lt;span style=&quot;font-size: 14px;&quot;&gt;WebAppController&lt;br&gt;&lt;/span&gt;&lt;/div&gt;" style="html=1;whiteSpace=wrap;" vertex="1" parent="1">
          <mxGeometry x="624" y="160" width="160" height="110" as="geometry" />
        </mxCell>
        <mxCell id="rQm5PKmlF0nse6cL3SRx-8" value="&lt;div style=&quot;&quot;&gt;&lt;span style=&quot;font-size: 14px;&quot;&gt;SearchController&lt;br&gt;&lt;/span&gt;&lt;/div&gt;" style="html=1;whiteSpace=wrap;" vertex="1" parent="1">
          <mxGeometry x="624" y="290" width="160" height="110" as="geometry" />
        </mxCell>
        <mxCell id="rQm5PKmlF0nse6cL3SRx-9" value="&lt;div style=&quot;&quot;&gt;&lt;span style=&quot;font-size: 14px;&quot;&gt;WeatherService:&lt;/span&gt;&lt;br&gt;&lt;font style=&quot;font-size: 13px;&quot;&gt;Uses WeatherEndpoint and CityEndpoint together to format the Data into useable methods&lt;/font&gt;&lt;/div&gt;" style="html=1;whiteSpace=wrap;" vertex="1" parent="1">
          <mxGeometry x="344" y="220" width="160" height="110" as="geometry" />
        </mxCell>
        <mxCell id="rQm5PKmlF0nse6cL3SRx-10" value="" style="html=1;whiteSpace=wrap;" vertex="1" parent="1">
          <mxGeometry x="94" y="570" width="640" height="500" as="geometry" />
        </mxCell>
        <mxCell id="rQm5PKmlF0nse6cL3SRx-11" value="&lt;font style=&quot;font-size: 22px;&quot;&gt;Temp / Uhrzeit&lt;/font&gt;" style="html=1;whiteSpace=wrap;" vertex="1" parent="1">
          <mxGeometry x="114" y="585" width="110" height="50" as="geometry" />
        </mxCell>
        <mxCell id="rQm5PKmlF0nse6cL3SRx-12" value="&lt;font style=&quot;font-size: 22px;&quot;&gt;Regen%&lt;/font&gt;" style="html=1;whiteSpace=wrap;" vertex="1" parent="1">
          <mxGeometry x="634" y="585" width="90" height="50" as="geometry" />
        </mxCell>
        <mxCell id="rQm5PKmlF0nse6cL3SRx-13" value="&lt;font style=&quot;font-size: 22px;&quot;&gt;Gefühlt&lt;/font&gt;" style="html=1;whiteSpace=wrap;" vertex="1" parent="1">
          <mxGeometry x="534" y="585" width="90" height="50" as="geometry" />
        </mxCell>
        <mxCell id="rQm5PKmlF0nse6cL3SRx-14" value="&lt;font style=&quot;font-size: 22px;&quot;&gt;Stadt&lt;/font&gt;" style="html=1;whiteSpace=wrap;" vertex="1" parent="1">
          <mxGeometry x="234" y="585" width="160" height="50" as="geometry" />
        </mxCell>
        <mxCell id="rQm5PKmlF0nse6cL3SRx-21" value="" style="group" vertex="1" connectable="0" parent="1">
          <mxGeometry x="114" y="700" width="446" height="120" as="geometry" />
        </mxCell>
        <mxCell id="rQm5PKmlF0nse6cL3SRx-15" value="" style="html=1;whiteSpace=wrap;" vertex="1" parent="rQm5PKmlF0nse6cL3SRx-21">
          <mxGeometry y="20" width="110" height="100" as="geometry" />
        </mxCell>
        <mxCell id="rQm5PKmlF0nse6cL3SRx-16" value="" style="html=1;whiteSpace=wrap;" vertex="1" parent="rQm5PKmlF0nse6cL3SRx-21">
          <mxGeometry x="90" y="20" width="110" height="100" as="geometry" />
        </mxCell>
        <mxCell id="rQm5PKmlF0nse6cL3SRx-17" value="" style="html=1;whiteSpace=wrap;" vertex="1" parent="rQm5PKmlF0nse6cL3SRx-21">
          <mxGeometry x="180" y="20" width="110" height="100" as="geometry" />
        </mxCell>
        <mxCell id="rQm5PKmlF0nse6cL3SRx-18" value="" style="html=1;whiteSpace=wrap;" vertex="1" parent="rQm5PKmlF0nse6cL3SRx-21">
          <mxGeometry x="270" y="20" width="110" height="100" as="geometry" />
        </mxCell>
        <mxCell id="rQm5PKmlF0nse6cL3SRx-19" value="" style="html=1;whiteSpace=wrap;" vertex="1" parent="rQm5PKmlF0nse6cL3SRx-21">
          <mxGeometry x="356" y="20" width="90" height="100" as="geometry" />
        </mxCell>
        <mxCell id="rQm5PKmlF0nse6cL3SRx-20" value="Vorhersage: Stündlich" style="html=1;whiteSpace=wrap;" vertex="1" parent="rQm5PKmlF0nse6cL3SRx-21">
          <mxGeometry y="-10" width="100" height="30" as="geometry" />
        </mxCell>
        <mxCell id="rQm5PKmlF0nse6cL3SRx-22" value="Bild" style="html=1;whiteSpace=wrap;" vertex="1" parent="rQm5PKmlF0nse6cL3SRx-21">
          <mxGeometry x="30" y="40" width="30" height="30" as="geometry" />
        </mxCell>
        <mxCell id="rQm5PKmlF0nse6cL3SRx-23" value="Bild" style="html=1;whiteSpace=wrap;" vertex="1" parent="rQm5PKmlF0nse6cL3SRx-21">
          <mxGeometry x="120" y="40" width="30" height="30" as="geometry" />
        </mxCell>
        <mxCell id="rQm5PKmlF0nse6cL3SRx-24" value="Bild" style="html=1;whiteSpace=wrap;" vertex="1" parent="rQm5PKmlF0nse6cL3SRx-21">
          <mxGeometry x="208" y="40" width="30" height="30" as="geometry" />
        </mxCell>
        <mxCell id="rQm5PKmlF0nse6cL3SRx-25" value="Bild" style="html=1;whiteSpace=wrap;" vertex="1" parent="rQm5PKmlF0nse6cL3SRx-21">
          <mxGeometry x="300" y="40" width="30" height="30" as="geometry" />
        </mxCell>
        <mxCell id="rQm5PKmlF0nse6cL3SRx-26" value="Bild" style="html=1;whiteSpace=wrap;" vertex="1" parent="rQm5PKmlF0nse6cL3SRx-21">
          <mxGeometry x="390" y="40" width="30" height="30" as="geometry" />
        </mxCell>
        <mxCell id="rQm5PKmlF0nse6cL3SRx-39" value="Temp" style="html=1;whiteSpace=wrap;" vertex="1" parent="rQm5PKmlF0nse6cL3SRx-21">
          <mxGeometry x="30" y="80" width="30" height="30" as="geometry" />
        </mxCell>
        <mxCell id="rQm5PKmlF0nse6cL3SRx-53" value="Temp" style="html=1;whiteSpace=wrap;" vertex="1" parent="rQm5PKmlF0nse6cL3SRx-21">
          <mxGeometry x="120" y="80" width="30" height="30" as="geometry" />
        </mxCell>
        <mxCell id="rQm5PKmlF0nse6cL3SRx-54" value="Temp" style="html=1;whiteSpace=wrap;" vertex="1" parent="rQm5PKmlF0nse6cL3SRx-21">
          <mxGeometry x="208" y="80" width="30" height="30" as="geometry" />
        </mxCell>
        <mxCell id="rQm5PKmlF0nse6cL3SRx-55" value="Temp" style="html=1;whiteSpace=wrap;" vertex="1" parent="rQm5PKmlF0nse6cL3SRx-21">
          <mxGeometry x="300" y="80" width="30" height="30" as="geometry" />
        </mxCell>
        <mxCell id="rQm5PKmlF0nse6cL3SRx-56" value="Temp" style="html=1;whiteSpace=wrap;" vertex="1" parent="rQm5PKmlF0nse6cL3SRx-21">
          <mxGeometry x="390" y="80" width="30" height="30" as="geometry" />
        </mxCell>
        <mxCell id="rQm5PKmlF0nse6cL3SRx-74" value="Vorhersage Täglich" style="html=1;whiteSpace=wrap;" vertex="1" parent="1">
          <mxGeometry x="114" y="840" width="120" height="30" as="geometry" />
        </mxCell>
        <mxCell id="rQm5PKmlF0nse6cL3SRx-75" value="" style="html=1;whiteSpace=wrap;" vertex="1" parent="1">
          <mxGeometry x="114" y="870" width="450" height="190" as="geometry" />
        </mxCell>
        <mxCell id="rQm5PKmlF0nse6cL3SRx-76" value="Heute" style="text;align=center;fontStyle=1;verticalAlign=middle;spacingLeft=3;spacingRight=3;strokeColor=none;rotatable=0;points=[[0,0.5],[1,0.5]];portConstraint=eastwest;html=1;" vertex="1" parent="1">
          <mxGeometry x="124" y="880" width="80" height="26" as="geometry" />
        </mxCell>
        <mxCell id="rQm5PKmlF0nse6cL3SRx-77" value="Mo" style="text;align=center;fontStyle=1;verticalAlign=middle;spacingLeft=3;spacingRight=3;strokeColor=none;rotatable=0;points=[[0,0.5],[1,0.5]];portConstraint=eastwest;html=1;" vertex="1" parent="1">
          <mxGeometry x="124" y="906" width="80" height="26" as="geometry" />
        </mxCell>
        <mxCell id="rQm5PKmlF0nse6cL3SRx-78" value="Di" style="text;align=center;fontStyle=1;verticalAlign=middle;spacingLeft=3;spacingRight=3;strokeColor=none;rotatable=0;points=[[0,0.5],[1,0.5]];portConstraint=eastwest;html=1;" vertex="1" parent="1">
          <mxGeometry x="124" y="932" width="80" height="26" as="geometry" />
        </mxCell>
        <mxCell id="rQm5PKmlF0nse6cL3SRx-79" value="Do" style="text;align=center;fontStyle=1;verticalAlign=middle;spacingLeft=3;spacingRight=3;strokeColor=none;rotatable=0;points=[[0,0.5],[1,0.5]];portConstraint=eastwest;html=1;" vertex="1" parent="1">
          <mxGeometry x="124" y="958" width="80" height="26" as="geometry" />
        </mxCell>
        <mxCell id="rQm5PKmlF0nse6cL3SRx-80" value="Fr" style="text;align=center;fontStyle=1;verticalAlign=middle;spacingLeft=3;spacingRight=3;strokeColor=none;rotatable=0;points=[[0,0.5],[1,0.5]];portConstraint=eastwest;html=1;" vertex="1" parent="1">
          <mxGeometry x="124" y="984" width="80" height="26" as="geometry" />
        </mxCell>
        <mxCell id="rQm5PKmlF0nse6cL3SRx-81" value="Hoch/NiedrigTemp" style="text;align=center;fontStyle=1;verticalAlign=middle;spacingLeft=3;spacingRight=3;strokeColor=none;rotatable=0;points=[[0,0.5],[1,0.5]];portConstraint=eastwest;html=1;" vertex="1" parent="1">
          <mxGeometry x="214" y="880" width="80" height="26" as="geometry" />
        </mxCell>
        <mxCell id="rQm5PKmlF0nse6cL3SRx-82" value="Temp" style="text;align=center;fontStyle=1;verticalAlign=middle;spacingLeft=3;spacingRight=3;strokeColor=none;rotatable=0;points=[[0,0.5],[1,0.5]];portConstraint=eastwest;html=1;" vertex="1" parent="1">
          <mxGeometry x="204" y="906" width="80" height="26" as="geometry" />
        </mxCell>
        <mxCell id="rQm5PKmlF0nse6cL3SRx-83" value="Temp" style="text;align=center;fontStyle=1;verticalAlign=middle;spacingLeft=3;spacingRight=3;strokeColor=none;rotatable=0;points=[[0,0.5],[1,0.5]];portConstraint=eastwest;html=1;" vertex="1" parent="1">
          <mxGeometry x="204" y="932" width="80" height="26" as="geometry" />
        </mxCell>
        <mxCell id="rQm5PKmlF0nse6cL3SRx-84" value="Temp" style="text;align=center;fontStyle=1;verticalAlign=middle;spacingLeft=3;spacingRight=3;strokeColor=none;rotatable=0;points=[[0,0.5],[1,0.5]];portConstraint=eastwest;html=1;" vertex="1" parent="1">
          <mxGeometry x="204" y="958" width="80" height="26" as="geometry" />
        </mxCell>
        <mxCell id="rQm5PKmlF0nse6cL3SRx-85" value="Temp" style="text;align=center;fontStyle=1;verticalAlign=middle;spacingLeft=3;spacingRight=3;strokeColor=none;rotatable=0;points=[[0,0.5],[1,0.5]];portConstraint=eastwest;html=1;" vertex="1" parent="1">
          <mxGeometry x="204" y="984" width="80" height="26" as="geometry" />
        </mxCell>
        <mxCell id="rQm5PKmlF0nse6cL3SRx-91" value="" style="group" vertex="1" connectable="0" parent="1">
          <mxGeometry x="324" y="880" width="80" height="130" as="geometry" />
        </mxCell>
        <mxCell id="rQm5PKmlF0nse6cL3SRx-86" value="Regen%" style="text;align=center;fontStyle=1;verticalAlign=middle;spacingLeft=3;spacingRight=3;strokeColor=none;rotatable=0;points=[[0,0.5],[1,0.5]];portConstraint=eastwest;html=1;" vertex="1" parent="rQm5PKmlF0nse6cL3SRx-91">
          <mxGeometry width="80" height="26" as="geometry" />
        </mxCell>
        <mxCell id="rQm5PKmlF0nse6cL3SRx-87" value="Regen%" style="text;align=center;fontStyle=1;verticalAlign=middle;spacingLeft=3;spacingRight=3;strokeColor=none;rotatable=0;points=[[0,0.5],[1,0.5]];portConstraint=eastwest;html=1;" vertex="1" parent="rQm5PKmlF0nse6cL3SRx-91">
          <mxGeometry y="26" width="80" height="26" as="geometry" />
        </mxCell>
        <mxCell id="rQm5PKmlF0nse6cL3SRx-88" value="Regen%" style="text;align=center;fontStyle=1;verticalAlign=middle;spacingLeft=3;spacingRight=3;strokeColor=none;rotatable=0;points=[[0,0.5],[1,0.5]];portConstraint=eastwest;html=1;" vertex="1" parent="rQm5PKmlF0nse6cL3SRx-91">
          <mxGeometry y="50" width="80" height="26" as="geometry" />
        </mxCell>
        <mxCell id="rQm5PKmlF0nse6cL3SRx-89" value="Regen%" style="text;align=center;fontStyle=1;verticalAlign=middle;spacingLeft=3;spacingRight=3;strokeColor=none;rotatable=0;points=[[0,0.5],[1,0.5]];portConstraint=eastwest;html=1;" vertex="1" parent="rQm5PKmlF0nse6cL3SRx-91">
          <mxGeometry y="78" width="80" height="26" as="geometry" />
        </mxCell>
        <mxCell id="rQm5PKmlF0nse6cL3SRx-90" value="Regen%" style="text;align=center;fontStyle=1;verticalAlign=middle;spacingLeft=3;spacingRight=3;strokeColor=none;rotatable=0;points=[[0,0.5],[1,0.5]];portConstraint=eastwest;html=1;" vertex="1" parent="rQm5PKmlF0nse6cL3SRx-91">
          <mxGeometry y="104" width="80" height="26" as="geometry" />
        </mxCell>
        <mxCell id="rQm5PKmlF0nse6cL3SRx-92" value="Use" style="endArrow=open;endSize=12;dashed=1;html=1;rounded=0;" edge="1" parent="1" source="rQm5PKmlF0nse6cL3SRx-9" target="rQm5PKmlF0nse6cL3SRx-5">
          <mxGeometry width="160" relative="1" as="geometry">
            <mxPoint x="354" y="300" as="sourcePoint" />
            <mxPoint x="514" y="300" as="targetPoint" />
          </mxGeometry>
        </mxCell>
        <mxCell id="rQm5PKmlF0nse6cL3SRx-93" value="Use" style="endArrow=open;endSize=12;dashed=1;html=1;rounded=0;exitX=0;exitY=0.75;exitDx=0;exitDy=0;entryX=1;entryY=0.25;entryDx=0;entryDy=0;" edge="1" parent="1" source="rQm5PKmlF0nse6cL3SRx-9" target="rQm5PKmlF0nse6cL3SRx-6">
          <mxGeometry width="160" relative="1" as="geometry">
            <mxPoint x="324" y="272" as="sourcePoint" />
            <mxPoint x="184" y="220" as="targetPoint" />
          </mxGeometry>
        </mxCell>
        <mxCell id="rQm5PKmlF0nse6cL3SRx-94" value="Use" style="endArrow=open;endSize=12;dashed=1;html=1;rounded=0;" edge="1" parent="1" target="rQm5PKmlF0nse6cL3SRx-9">
          <mxGeometry width="160" relative="1" as="geometry">
            <mxPoint x="624" y="212" as="sourcePoint" />
            <mxPoint x="484" y="160" as="targetPoint" />
          </mxGeometry>
        </mxCell>
        <mxCell id="rQm5PKmlF0nse6cL3SRx-95" value="Use" style="endArrow=open;endSize=12;dashed=1;html=1;rounded=0;" edge="1" parent="1" target="rQm5PKmlF0nse6cL3SRx-9">
          <mxGeometry width="160" relative="1" as="geometry">
            <mxPoint x="624" y="350" as="sourcePoint" />
            <mxPoint x="504" y="388" as="targetPoint" />
          </mxGeometry>
        </mxCell>
      </root>
    </mxGraphModel>
  </diagram>
</mxfile>
